<?xml version="1.0" encoding="UTF-8" standalone="no"?>
<!-- Created with Inkscape (http://www.inkscape.org/) -->

<svg
   xmlns:dc="http://purl.org/dc/elements/1.1/"
   xmlns:cc="http://creativecommons.org/ns#"
   xmlns:rdf="http://www.w3.org/1999/02/22-rdf-syntax-ns#"
   xmlns:svg="http://www.w3.org/2000/svg"
   xmlns="http://www.w3.org/2000/svg"
   xmlns:sodipodi="http://sodipodi.sourceforge.net/DTD/sodipodi-0.dtd"
   xmlns:inkscape="http://www.inkscape.org/namespaces/inkscape"
   width="999.99829"
   height="237.01186"
   id="svg2"
   version="1.1"
   inkscape:version="0.48.5 r10040"
   sodipodi:docname="New document 1">
  <defs
     id="defs4">
    <clipPath
       clipPathUnits="userSpaceOnUse"
       id="clipPath6516">
      <path
         inkscape:connector-curvature="0"
         d="m 307.702,44.303 115.708,0 0,36.224 -115.708,0 0,-36.224 z"
         id="path6518" />
    </clipPath>
    <clipPath
       clipPathUnits="userSpaceOnUse"
       id="clipPath6428">
      <path
         inkscape:connector-curvature="0"
         d="m 307.702,44.303 115.708,0 0,36.224 -115.708,0 0,-36.224 z"
         id="path6430" />
    </clipPath>
  </defs>
  <sodipodi:namedview
     id="base"
     pagecolor="#ffffff"
     bordercolor="#666666"
     borderopacity="1.0"
     inkscape:pageopacity="0.0"
     inkscape:pageshadow="2"
     inkscape:zoom="0.28676758"
     inkscape:cx="1348.2799"
     inkscape:cy="-252.41627"
     inkscape:document-units="px"
     inkscape:current-layer="layer1"
     showgrid="false"
     fit-margin-top="0"
     fit-margin-left="0"
     fit-margin-right="0"
     fit-margin-bottom="0"
     inkscape:window-width="1020"
     inkscape:window-height="1036"
     inkscape:window-x="893"
     inkscape:window-y="-18"
     inkscape:window-maximized="0" />
  <metadata
     id="metadata7">
    <rdf:RDF>
      <cc:Work
         rdf:about="">
        <dc:format>image/svg+xml</dc:format>
        <dc:type
           rdf:resource="http://purl.org/dc/dcmitype/StillImage" />
        <dc:title></dc:title>
      </cc:Work>
    </rdf:RDF>
  </metadata>
  <g
     inkscape:label="Layer 1"
     inkscape:groupmode="layer"
     id="layer1"
     transform="translate(-418.14454,47.696717)">
    <g
       id="g6520"
       transform="matrix(8.6518644,0,0,-8.6518644,514.99025,33.619596)"
       style="fill:#1d919c;fill-opacity:1">
      <path
         inkscape:connector-curvature="0"
         d="m 0,0 0,0 c -1.894,-1.708 -3.168,-3.797 -3.246,-5.322 -0.031,-0.601 0.118,-1.087 0.442,-1.447 0.304,-0.337 0.735,-0.532 1.283,-0.58 l 0.222,-0.019 0.003,0.223 c 0.018,1.427 1.241,3.442 3.112,5.133 1.873,1.689 4.001,2.698 5.423,2.57 L 7.462,0.538 7.465,0.762 C 7.472,1.312 7.322,1.761 7.02,2.097 6.695,2.457 6.226,2.655 5.626,2.686 4.102,2.764 1.894,1.71 0,0"
         style="fill:#1d919c;fill-opacity:1;fill-rule:nonzero;stroke:none"
         id="path6522" />
    </g>
    <g
       id="g6524"
       transform="matrix(8.6518644,0,0,-8.6518644,453.67712,-28.610704)"
       style="fill:#1d919c;fill-opacity:1">
      <path
         inkscape:connector-curvature="0"
         d="m 0,0 c -1.842,-1.583 -3.973,-4.832 -4.098,-8.499 -0.135,-4.002 1.262,-8.173 4.128,-11.349 2.865,-3.178 6.948,-5.117 10.945,-5.323 3.386,-0.175 6.545,0.985 8.936,3.114 1.509,1.342 1.994,2.563 2.627,3.889 -1.217,-1.36 -1.367,-1.511 -1.675,-1.789 -2.177,-1.965 -5.166,-2.868 -8.27,-2.633 -3.661,0.276 -7.251,1.966 -9.929,4.888 C -2.46,-12.109 -2.62,-3.751 2.323,0.71 2.805,1.145 3.934,1.904 4.662,2.206 4.662,2.206 1.793,1.541 0,0"
         style="fill:#1d919c;fill-opacity:1;fill-rule:nonzero;stroke:none"
         id="path6526" />
    </g>
    <g
       id="g6528"
       transform="matrix(8.6518644,0,0,-8.6518644,487.38735,-15.344766)"
       style="fill:#1d919c;fill-opacity:1">
      <path
         inkscape:connector-curvature="0"
         d="m 0,0 c -1.263,-1.139 -2.061,-2.649 -2.487,-4.672 0,0 1.364,2.012 2.091,2.558 1.651,1.242 4.206,2.57 8.208,1.513 2.594,-0.685 3.347,-1.932 3.686,-2.407 1.386,-1.948 -0.068,-5.302 -3.057,-8.192 -2.956,-2.857 -7.185,-3.773 -8.684,-2.655 0.68,-0.87 1.375,-1.517 2.094,-2.121 2.558,-1.54 6.219,0.551 8.548,2.763 2.033,2.135 4.529,5.109 3.057,8.327 1.05,-1.827 1.782,-4.127 1.791,-5.74 0.03,-5.356 -3.897,-7.341 -5.011,-7.924 1.787,0.078 5.893,1.248 7.24,6.153 0.964,3.508 -0.121,7.562 -2.832,10.566 C 12.468,0.582 9.498,2.055 6.496,2.209 4.026,2.336 1.719,1.551 0,0"
         style="fill:#1d919c;fill-opacity:1;fill-rule:nonzero;stroke:none"
         id="path6530" />
    </g>
    <g
       id="g6532"
       transform="matrix(8.6518644,0,0,-8.6518644,1317.9802,79.503894)"
       style="fill:#000000">
      <path
         inkscape:connector-curvature="0"
         d="M 0,0 5.207,0 2.624,6.783 2.575,6.783 0,0 z m 11.577,-6.422 -3.851,0 -1.538,3.734 -7.148,0 -1.563,-3.734 -3.654,0 c 0,0 5.788,14.068 6.131,14.849 0.345,0.782 0.855,1.694 2.233,1.694 l 2.549,0 6.841,-16.543 z"
         style="fill:#000000;fill-opacity:1;fill-rule:nonzero;stroke:none"
         id="path6534" />
    </g>
    <g
       id="g6536"
       transform="matrix(8.6518644,0,0,-8.6518644,734.81253,79.503894)"
       style="fill:#000000">
      <path
         inkscape:connector-curvature="0"
         d="M 0,0 5.205,0 2.623,6.783 2.574,6.783 0,0 z m 11.573,-6.422 -3.849,0 -1.538,3.734 -7.145,0 -1.562,-3.734 -3.653,0 c 0,0 5.786,14.068 6.129,14.849 0.344,0.782 0.854,1.694 2.232,1.694 l 2.547,0 6.839,-16.543 z"
         style="fill:#000000;fill-opacity:1;fill-rule:nonzero;stroke:none"
         id="path6538" />
    </g>
    <g
       id="g6540"
       transform="matrix(8.6518644,0,0,-8.6518644,875.55151,56.927719)"
       style="fill:#000000">
      <path
         inkscape:connector-curvature="0"
         d="m 0,0 0,4.546 0.629,0 c 0.754,0 1.809,0.045 2.563,-0.134 C 4.222,4.165 4.976,3.245 4.976,2.237 4.976,1.273 4.297,0.471 3.292,0.179 2.463,-0.045 1.482,0 0.629,0 L 0,0 z m 4.866,-2.398 c 0.48,0.148 0.933,0.355 1.341,0.648 1.458,1.03 2.212,2.599 2.212,4.235 0,1.658 -0.93,3.248 -2.463,4.167 -1.558,0.941 -3.242,0.86 -5.026,0.86 l -4.24,0 0,-16.543 3.31,0 0,6.328 0.344,0 0.349,0 c 0.415,0 0.607,-0.308 1.411,-1.45 1.303,-1.85 3.491,-4.878 3.491,-4.878 l 4.113,0 -4.842,6.633 z"
         style="fill:#000000;fill-opacity:1;fill-rule:nonzero;stroke:none"
         id="path6542" />
    </g>
    <g
       id="g6544"
       transform="matrix(8.6518644,0,0,-8.6518644,1001.1308,56.927719)"
       style="fill:#000000">
      <path
         inkscape:connector-curvature="0"
         d="m 0,0 0,4.546 0.629,0 c 0.753,0 1.809,0.045 2.563,-0.134 C 4.223,4.165 4.977,3.245 4.977,2.237 4.977,1.273 4.299,0.471 3.293,0.179 2.463,-0.045 1.483,0 0.629,0 L 0,0 z m 4.867,-2.398 c 0.479,0.148 0.934,0.355 1.342,0.648 1.458,1.03 2.212,2.599 2.212,4.235 0,1.658 -0.93,3.248 -2.463,4.167 -1.559,0.941 -3.243,0.86 -5.029,0.86 l -4.24,0 0,-16.543 3.311,0 0,6.328 0.344,0 0.349,0 c 0.415,0 0.607,-0.308 1.411,-1.45 1.304,-1.85 3.493,-4.878 3.493,-4.878 l 4.114,0 -4.844,6.633 z"
         style="fill:#000000;fill-opacity:1;fill-rule:nonzero;stroke:none"
         id="path6546" />
    </g>
    <g
       id="g6548"
       transform="matrix(8.6518644,0,0,-8.6518644,1130.7884,-8.0642562)"
       style="fill:#000000">
      <path
         inkscape:connector-curvature="0"
         d="m 0,0 -1.761,0 c -0.782,0 -1.763,-0.483 -1.763,-1.786 l 0,-14.756 3.524,0 L 0,0 z"
         style="fill:#000000;fill-opacity:1;fill-rule:nonzero;stroke:none"
         id="path6550" />
    </g>
    <g
       id="g6552"
       transform="matrix(8.6518644,0,0,-8.6518644,1200.9308,135.06444)"
       style="fill:#000000">
      <path
         inkscape:connector-curvature="0"
         d="m 0,0 -6.838,16.543 3.956,0 4.933,-12.857 0.062,0 4.955,12.857 3.934,0 L 4.165,0 0,0 z"
         style="fill:#000000;fill-opacity:1;fill-rule:nonzero;stroke:none"
         id="path6554" />
    </g>
  </g>
</svg>
