<?xml version="1.0" encoding="UTF-8" ?>
<!DOCTYPE svg PUBLIC "-//W3C//DTD SVG 1.1//EN" "http://www.w3.org/Graphics/SVG/1.1/DTD/svg11.dtd">
<svg width="3036pt" height="326pt" viewBox="0 0 3036 326" version="1.1" xmlns="http://www.w3.org/2000/svg">
<g id="#001f234f">
<path fill="#001f23" opacity="0.31" d=" M 1696.63 0.00 L 1705.38 0.00 C 1713.75 1.82 1721.56 6.36 1726.53 13.44 C 1747.67 43.82 1768.75 74.25 1789.97 104.58 C 1812.28 73.60 1833.78 42.01 1856.02 10.98 C 1860.55 5.05 1867.75 2.22 1874.62 0.00 L 1884.34 0.00 C 1891.27 2.46 1898.82 4.44 1904.14 9.85 C 1909.94 15.66 1914.33 23.58 1913.81 32.01 C 1914.13 41.26 1909.01 49.47 1903.33 56.34 C 1879.41 87.12 1855.75 118.09 1831.84 148.87 C 1830.06 151.03 1828.57 153.38 1826.93 155.63 C 1838.29 169.16 1848.58 183.56 1859.53 197.43 C 1879.23 223.06 1899.02 248.63 1918.72 274.26 C 1923.19 280.21 1926.46 287.40 1925.82 295.01 C 1926.43 302.74 1922.56 309.91 1917.17 315.17 C 1912.42 320.47 1905.86 323.56 1899.31 326.00 L 1885.57 326.00 C 1878.60 323.52 1871.48 320.12 1867.25 313.77 C 1843.36 280.62 1819.76 247.27 1796.10 213.96 C 1794.17 211.55 1792.87 208.28 1790.00 206.89 C 1788.56 207.44 1787.78 208.83 1786.88 209.95 C 1765.11 240.82 1743.31 271.67 1721.47 302.50 C 1717.47 308.36 1713.52 314.42 1708.09 319.09 C 1704.39 322.28 1699.86 324.29 1695.34 326.00 L 1681.58 326.00 C 1673.77 323.10 1665.71 319.29 1660.71 312.34 C 1655.36 305.04 1652.55 295.26 1655.56 286.45 C 1657.92 277.87 1664.28 271.39 1669.52 264.49 C 1694.10 232.42 1718.88 200.50 1743.46 168.42 C 1746.59 163.93 1750.91 160.17 1753.04 155.04 C 1751.62 151.96 1749.28 149.46 1747.24 146.81 C 1724.24 117.13 1701.34 87.36 1678.38 57.65 C 1673.78 51.98 1669.06 46.00 1667.45 38.70 C 1664.93 29.02 1668.21 18.28 1675.34 11.35 C 1680.91 5.23 1688.81 2.11 1696.63 0.00 M 1667.49 31.29 C 1667.29 38.34 1670.26 45.04 1674.38 50.61 C 1700.54 84.45 1726.65 118.35 1752.81 152.18 C 1754.07 153.58 1754.47 155.68 1753.33 157.29 C 1750.17 162.36 1745.90 166.62 1742.55 171.55 C 1716.70 205.05 1690.91 238.59 1665.07 272.08 C 1659.62 278.17 1655.82 285.84 1654.89 293.99 C 1655.37 298.57 1656.58 303.12 1658.80 307.18 C 1665.77 320.44 1682.37 328.33 1696.94 323.99 C 1706.98 321.19 1713.50 312.26 1719.03 304.03 C 1742.08 271.28 1765.38 238.71 1788.28 205.86 C 1789.80 206.10 1791.84 205.61 1792.71 207.29 C 1816.84 241.16 1840.85 275.11 1865.11 308.88 C 1868.22 313.04 1871.03 317.70 1875.74 320.27 C 1882.59 325.01 1891.40 326.08 1899.44 324.42 C 1909.24 322.08 1917.40 314.96 1922.38 306.37 C 1925.51 301.22 1925.60 294.98 1924.89 289.18 C 1923.40 283.63 1920.58 278.47 1917.06 273.96 C 1886.65 234.64 1856.45 195.15 1825.98 155.88 C 1826.16 154.14 1827.51 152.83 1828.42 151.41 C 1854.52 117.82 1880.36 84.03 1906.43 50.43 C 1911.20 43.48 1914.66 34.87 1912.70 26.35 C 1910.58 19.61 1906.77 13.24 1901.20 8.80 C 1895.71 4.39 1888.75 2.31 1881.94 1.07 C 1871.83 0.37 1861.30 5.13 1855.50 13.52 C 1845.63 27.64 1835.68 41.70 1825.77 55.79 C 1814.47 72.36 1802.47 88.46 1791.37 105.16 C 1789.99 104.84 1788.29 104.89 1787.65 103.40 C 1767.10 73.63 1746.33 44.00 1725.73 14.27 C 1720.57 7.19 1712.70 1.87 1703.81 1.20 C 1686.61 -0.22 1668.30 13.49 1667.49 31.29 Z" />
<path fill="#001f23" opacity="0.31" d=" M 1995.62 0.00 L 2004.38 0.00 C 2013.00 1.84 2020.95 6.66 2025.95 14.01 C 2046.97 44.19 2067.86 74.46 2088.97 104.58 C 2101.51 87.48 2113.42 69.92 2125.64 52.59 C 2135.29 39.20 2144.56 25.54 2154.14 12.10 C 2158.68 5.55 2166.26 2.30 2173.62 0.00 L 2183.32 0.00 C 2190.13 2.17 2197.33 4.29 2202.62 9.38 C 2208.74 15.19 2213.29 23.34 2212.82 32.00 C 2213.30 40.03 2209.21 47.36 2204.51 53.53 C 2181.21 83.60 2158.05 113.76 2134.78 143.85 C 2132.17 147.29 2128.98 150.39 2127.18 154.36 C 2126.30 156.14 2128.06 157.65 2128.88 159.07 C 2156.92 195.07 2184.55 231.38 2212.54 267.42 C 2217.42 274.06 2223.60 280.59 2224.55 289.15 C 2224.98 295.21 2225.32 301.77 2222.19 307.23 C 2217.11 316.41 2208.15 322.78 2198.30 326.00 L 2184.57 326.00 C 2177.60 323.52 2170.48 320.12 2166.25 313.77 C 2143.15 281.82 2120.55 249.50 2097.54 217.48 C 2094.74 213.87 2092.71 209.38 2088.97 206.68 C 2083.92 211.56 2080.61 217.90 2076.41 223.47 C 2058.61 248.67 2040.74 273.82 2022.99 299.06 C 2018.17 305.81 2013.74 312.96 2007.66 318.68 C 2003.93 322.26 1999.05 324.21 1994.31 326.00 L 1980.57 326.00 C 1975.75 324.24 1971.02 322.11 1966.79 319.19 C 1956.75 311.82 1950.34 297.90 1954.79 285.68 C 1957.12 278.17 1962.60 272.33 1967.21 266.16 C 1992.49 233.44 2017.66 200.63 2042.95 167.92 C 2046.04 163.69 2049.98 159.93 2052.04 155.03 C 2051.53 153.90 2050.85 152.87 2050.18 151.87 C 2026.74 121.62 2003.44 91.27 1980.02 61.01 C 1975.82 55.50 1970.97 50.33 1968.18 43.91 C 1963.69 33.58 1965.41 20.56 1973.37 12.38 C 1979.03 5.69 1987.33 2.17 1995.62 0.00 M 1968.31 22.35 C 1966.62 26.01 1966.84 30.11 1966.88 34.04 C 1966.69 40.19 1970.00 45.72 1973.38 50.61 C 1998.60 83.08 2023.65 115.69 2048.77 148.24 C 2050.83 150.95 2054.85 154.41 2051.95 157.95 C 2045.72 166.65 2038.81 174.84 2032.40 183.40 C 2008.99 213.99 1985.33 244.37 1961.94 274.97 C 1957.47 280.34 1954.71 287.08 1953.89 293.99 C 1955.05 308.52 1966.38 321.21 1980.51 324.48 C 1988.34 326.02 1996.81 324.94 2003.62 320.62 C 2009.83 315.77 2014.50 309.35 2018.90 302.89 C 2041.66 270.48 2064.69 238.26 2087.41 205.83 C 2088.85 206.11 2090.69 205.92 2091.68 207.32 C 2113.42 237.60 2134.90 268.08 2156.59 298.41 C 2160.78 304.21 2164.83 310.12 2169.27 315.74 C 2179.10 326.63 2196.90 328.13 2208.86 319.88 C 2215.49 315.12 2221.47 308.68 2223.70 300.64 C 2225.14 293.34 2223.94 285.50 2219.76 279.26 C 2215.54 272.92 2210.74 266.97 2206.05 260.97 C 2180.23 227.46 2154.46 193.91 2128.56 160.46 C 2126.92 158.50 2125.05 156.08 2126.32 153.41 C 2128.28 149.54 2131.45 146.48 2134.02 143.01 C 2155.06 115.73 2176.06 88.40 2197.17 61.17 C 2201.31 55.28 2206.58 50.11 2209.42 43.38 C 2213.24 36.43 2213.26 27.55 2209.42 20.62 C 2205.42 11.92 2197.48 5.18 2188.24 2.71 C 2175.74 -1.97 2160.74 3.50 2153.66 14.67 C 2132.68 44.91 2111.18 74.81 2090.38 105.16 C 2088.99 104.84 2087.29 104.89 2086.66 103.40 C 2066.51 74.22 2046.13 45.20 2026.01 16.00 C 2021.76 9.90 2015.90 4.40 2008.61 2.35 C 1992.68 -2.51 1974.70 7.40 1968.31 22.35 Z" />
</g>
<g id="#006671ff">
<path fill="#006671" opacity="1.00" d=" M 148.67 1.41 C 160.01 -0.41 171.44 1.30 182.77 2.08 C 201.70 4.55 220.75 7.95 238.37 15.54 C 247.14 19.66 256.27 23.82 262.95 31.06 C 269.21 36.84 273.16 45.22 273.02 53.77 C 271.61 70.43 255.72 84.49 238.96 83.38 C 233.02 83.24 227.40 80.73 222.44 77.62 C 207.58 67.89 189.73 63.57 172.13 62.98 C 162.50 61.16 152.83 63.23 143.18 63.46 C 126.70 65.11 110.18 69.85 96.69 79.75 C 88.28 86.35 81.13 94.59 76.19 104.10 C 70.71 115.35 67.54 127.61 66.20 140.03 C 64.71 148.61 65.49 157.34 65.31 166.00 C 64.85 182.57 67.28 199.35 73.20 214.86 C 76.99 225.09 83.24 234.32 91.11 241.85 C 101.87 251.79 115.69 257.92 129.94 260.87 C 140.81 263.04 151.91 264.09 162.99 263.70 C 177.03 264.28 191.09 261.85 204.31 257.19 C 212.27 254.30 219.44 249.71 226.91 245.82 C 233.65 242.32 241.43 242.10 248.81 242.98 C 260.94 245.32 270.38 255.86 272.33 267.91 C 274.32 277.78 269.69 287.91 262.93 294.93 C 249.25 307.54 231.32 314.09 213.61 318.74 C 195.43 323.12 176.73 325.98 157.99 325.31 C 147.43 325.78 136.95 324.15 126.52 322.66 C 96.87 318.09 68.11 305.50 46.08 284.91 C 34.21 273.68 24.80 260.01 17.46 245.46 C 10.19 230.46 5.65 214.28 2.92 197.87 C 2.07 192.85 2.28 187.55 0.00 182.88 L 0.00 141.96 C 1.86 139.10 1.78 135.62 2.27 132.36 C 6.18 103.04 17.02 74.09 36.48 51.48 C 43.17 42.83 51.87 36.05 60.59 29.56 C 86.26 11.56 117.61 3.04 148.67 1.41 Z" />
<path fill="#006671" opacity="1.00" d=" M 463.35 1.20 C 473.54 -0.43 483.74 1.55 493.93 1.90 C 503.22 3.13 512.42 4.97 521.47 7.37 C 561.37 18.06 596.65 46.14 614.52 83.56 C 625.49 103.95 630.29 127.08 632.31 149.96 C 632.34 157.65 632.28 165.33 632.33 173.02 C 630.77 193.53 626.11 213.89 617.84 232.76 C 610.64 248.32 601.35 263.04 589.60 275.55 C 586.15 280.77 580.74 284.05 576.38 288.39 C 558.35 303.92 536.58 314.95 513.47 320.63 C 501.22 323.59 488.63 325.73 476.00 325.31 C 439.20 326.50 402.04 313.84 373.65 290.36 C 369.22 285.75 363.48 282.47 359.95 277.00 C 352.21 269.15 346.05 259.95 340.37 250.55 C 326.68 227.38 319.49 200.76 317.67 174.03 C 317.74 165.00 317.61 155.98 317.73 146.96 C 319.43 132.57 321.33 118.04 326.16 104.29 C 332.83 82.90 344.15 62.87 359.59 46.58 C 380.47 24.49 408.78 10.03 438.52 4.34 C 446.68 2.45 455.05 1.97 463.35 1.20 M 467.53 62.83 C 463.71 63.64 459.75 63.37 455.95 64.25 C 441.10 66.51 426.92 72.81 415.36 82.40 C 410.76 85.74 406.89 89.95 403.49 94.48 C 390.38 110.70 384.14 131.44 382.49 151.98 C 382.50 163.68 381.89 175.46 384.32 186.98 C 387.67 206.72 396.13 226.23 410.98 240.02 C 423.62 253.00 441.18 260.43 459.00 262.65 C 466.89 264.18 474.97 263.34 482.95 263.49 C 491.42 262.35 499.96 260.85 507.99 257.82 C 522.43 252.91 534.93 243.35 544.83 231.89 C 551.83 223.32 556.86 213.35 560.94 203.12 C 567.90 183.23 569.31 161.57 565.85 140.85 C 562.31 120.63 552.56 101.51 537.98 87.05 C 530.13 80.69 522.08 74.25 512.55 70.59 C 505.02 67.05 496.84 65.20 488.70 63.68 C 481.62 63.60 474.61 61.49 467.53 62.83 Z" />
<path fill="#006671" opacity="1.00" d=" M 1456.97 1.71 C 1460.67 1.84 1464.35 1.47 1468.00 0.81 C 1473.65 0.58 1479.34 0.58 1485.00 0.81 C 1488.64 1.48 1492.32 1.79 1496.04 1.75 C 1518.36 4.22 1540.88 9.79 1560.06 21.88 C 1567.76 26.64 1575.21 31.94 1581.41 38.59 C 1595.51 51.78 1605.48 68.92 1612.21 86.90 C 1619.64 106.06 1622.74 126.59 1624.33 146.97 C 1624.30 162.42 1624.30 177.87 1624.32 193.32 C 1545.85 193.29 1467.38 193.31 1388.91 193.31 C 1391.08 202.50 1394.35 211.57 1399.60 219.47 C 1402.52 223.80 1405.00 228.53 1408.88 232.12 C 1412.28 235.37 1415.43 238.89 1418.97 242.00 C 1434.29 254.21 1453.48 261.28 1472.97 262.66 C 1477.68 262.35 1482.25 263.86 1486.96 263.72 C 1515.31 263.66 1543.65 263.70 1572.00 263.69 C 1578.36 263.96 1584.90 262.88 1591.11 264.72 C 1601.28 266.98 1609.55 275.83 1611.05 286.16 C 1611.72 294.19 1611.85 302.70 1608.15 310.09 C 1605.18 315.31 1600.80 320.00 1595.11 322.22 C 1584.21 326.34 1572.41 325.17 1561.00 325.31 C 1535.33 325.33 1509.67 325.27 1484.00 325.34 C 1478.60 325.63 1473.38 323.84 1467.98 324.31 C 1446.91 322.72 1425.88 318.24 1406.56 309.51 C 1391.35 303.12 1377.71 293.51 1365.58 282.43 C 1350.11 266.47 1339.05 246.61 1332.41 225.47 C 1328.35 212.18 1325.48 198.49 1324.18 184.66 C 1323.14 179.71 1324.24 174.60 1323.21 169.66 C 1322.46 165.89 1322.42 161.98 1323.05 158.20 C 1324.46 152.05 1322.93 145.67 1324.31 139.52 C 1325.90 120.92 1330.34 102.59 1337.06 85.18 C 1345.58 64.18 1359.24 45.11 1377.18 31.16 C 1399.75 13.05 1428.52 4.46 1456.97 1.71 M 1465.94 60.25 C 1456.69 60.76 1447.54 62.82 1438.88 66.06 C 1429.94 69.22 1422.07 74.79 1414.99 80.99 C 1406.18 90.14 1399.84 101.40 1395.55 113.30 C 1393.12 121.56 1390.21 129.90 1390.31 138.62 C 1447.47 138.44 1504.64 138.46 1561.81 138.61 C 1558.55 122.85 1555.08 106.55 1545.83 93.05 C 1534.77 75.12 1514.86 63.97 1494.33 60.95 C 1484.92 59.93 1475.35 58.39 1465.94 60.25 Z" />
<path fill="#006671" opacity="1.00" d=" M 1667.49 31.29 C 1668.30 13.49 1686.61 -0.22 1703.81 1.20 C 1712.70 1.87 1720.57 7.19 1725.73 14.27 C 1746.33 44.00 1767.10 73.63 1787.65 103.40 C 1788.29 104.89 1789.99 104.84 1791.37 105.16 C 1802.47 88.46 1814.47 72.36 1825.77 55.79 C 1835.68 41.70 1845.63 27.64 1855.50 13.52 C 1861.30 5.13 1871.83 0.37 1881.94 1.07 C 1888.75 2.31 1895.71 4.39 1901.20 8.80 C 1906.77 13.24 1910.58 19.61 1912.70 26.35 C 1914.66 34.87 1911.20 43.48 1906.43 50.43 C 1880.36 84.03 1854.52 117.82 1828.42 151.41 C 1827.51 152.83 1826.16 154.14 1825.98 155.88 C 1856.45 195.15 1886.65 234.64 1917.06 273.96 C 1920.58 278.47 1923.40 283.63 1924.89 289.18 C 1925.60 294.98 1925.51 301.22 1922.38 306.37 C 1917.40 314.96 1909.24 322.08 1899.44 324.42 C 1891.40 326.08 1882.59 325.01 1875.74 320.27 C 1871.03 317.70 1868.22 313.04 1865.11 308.88 C 1840.85 275.11 1816.84 241.16 1792.71 207.29 C 1791.84 205.61 1789.80 206.10 1788.28 205.86 C 1765.38 238.71 1742.08 271.28 1719.03 304.03 C 1713.50 312.26 1706.98 321.19 1696.94 323.99 C 1682.37 328.33 1665.77 320.44 1658.80 307.18 C 1656.58 303.12 1655.37 298.57 1654.89 293.99 C 1655.82 285.84 1659.62 278.17 1665.07 272.08 C 1690.91 238.59 1716.70 205.05 1742.55 171.55 C 1745.90 166.62 1750.17 162.36 1753.33 157.29 C 1754.47 155.68 1754.07 153.58 1752.81 152.18 C 1726.65 118.35 1700.54 84.45 1674.38 50.61 C 1670.26 45.04 1667.29 38.34 1667.49 31.29 Z" />
<path fill="#006671" opacity="1.00" d=" M 1968.31 22.35 C 1974.70 7.40 1992.68 -2.51 2008.61 2.35 C 2015.90 4.40 2021.76 9.90 2026.01 16.00 C 2046.13 45.20 2066.51 74.22 2086.66 103.40 C 2087.29 104.89 2088.99 104.84 2090.38 105.16 C 2111.18 74.81 2132.68 44.91 2153.66 14.67 C 2160.74 3.50 2175.74 -1.97 2188.24 2.71 C 2197.48 5.18 2205.42 11.92 2209.42 20.62 C 2213.26 27.55 2213.24 36.43 2209.42 43.38 C 2206.58 50.11 2201.31 55.28 2197.17 61.17 C 2176.06 88.40 2155.06 115.73 2134.02 143.01 C 2131.45 146.48 2128.28 149.54 2126.32 153.41 C 2125.05 156.08 2126.92 158.50 2128.56 160.46 C 2154.46 193.91 2180.23 227.46 2206.05 260.97 C 2210.74 266.97 2215.54 272.92 2219.76 279.26 C 2223.94 285.50 2225.14 293.34 2223.70 300.64 C 2221.47 308.68 2215.49 315.12 2208.86 319.88 C 2196.90 328.13 2179.10 326.63 2169.27 315.74 C 2164.83 310.12 2160.78 304.21 2156.59 298.41 C 2134.90 268.08 2113.42 237.60 2091.68 207.32 C 2090.69 205.92 2088.85 206.11 2087.41 205.83 C 2064.69 238.26 2041.66 270.48 2018.90 302.89 C 2014.50 309.35 2009.83 315.77 2003.62 320.62 C 1996.81 324.94 1988.34 326.02 1980.51 324.48 C 1966.38 321.21 1955.05 308.52 1953.89 293.99 C 1954.71 287.08 1957.47 280.34 1961.94 274.97 C 1985.33 244.37 2008.99 213.99 2032.40 183.40 C 2038.81 174.84 2045.72 166.65 2051.95 157.95 C 2054.85 154.41 2050.83 150.95 2048.77 148.24 C 2023.65 115.69 1998.60 83.08 1973.38 50.61 C 1970.00 45.72 1966.69 40.19 1966.88 34.04 C 1966.84 30.11 1966.62 26.01 1968.31 22.35 Z" />
<path fill="#006671" opacity="1.00" d=" M 2303.33 1.13 C 2309.82 -0.12 2316.48 1.38 2322.75 3.11 C 2332.13 5.70 2338.92 14.48 2340.31 23.94 C 2341.85 30.86 2341.18 37.97 2341.31 45.00 C 2341.31 124.33 2341.31 203.67 2341.31 283.00 C 2341.39 291.76 2341.75 300.89 2338.23 309.11 C 2334.79 317.58 2326.44 323.42 2317.51 324.71 C 2305.60 326.70 2291.71 325.21 2283.09 315.88 C 2279.65 310.93 2276.96 305.14 2276.68 299.04 C 2276.70 211.36 2276.69 123.68 2276.69 36.00 C 2276.72 32.35 2276.50 28.69 2276.81 25.05 C 2277.64 19.18 2280.41 13.69 2284.14 9.14 C 2289.56 4.64 2296.30 1.79 2303.33 1.13 Z" />
<path fill="#006671" opacity="1.00" d=" M 2550.34 1.20 C 2556.47 0.31 2562.74 0.57 2568.92 0.92 C 2573.14 1.95 2577.51 1.44 2581.81 2.03 C 2597.74 4.35 2613.73 7.73 2628.46 14.45 C 2665.40 29.67 2694.61 61.33 2708.50 98.61 C 2712.85 110.19 2715.79 122.27 2717.67 134.50 C 2719.87 147.23 2719.25 160.15 2719.33 173.02 C 2717.08 207.33 2705.02 241.37 2683.18 268.14 C 2677.81 274.12 2673.10 280.81 2666.56 285.61 C 2650.50 300.15 2631.32 311.14 2610.73 317.85 C 2598.15 321.74 2585.13 324.14 2572.04 325.31 C 2565.01 325.34 2557.99 325.29 2550.98 325.33 C 2517.60 323.32 2484.42 311.01 2459.14 288.87 C 2455.76 285.18 2451.12 282.83 2448.39 278.56 C 2428.89 258.10 2415.44 232.04 2409.37 204.47 C 2406.26 190.89 2404.23 176.96 2404.69 163.00 C 2404.01 140.24 2408.14 117.42 2415.95 96.05 C 2426.32 69.04 2444.09 44.44 2468.28 28.22 C 2492.19 11.36 2521.32 2.83 2550.34 1.20 M 2554.53 62.83 C 2544.96 63.76 2535.34 65.13 2526.29 68.53 C 2512.62 74.28 2499.40 82.37 2490.50 94.48 C 2476.07 112.60 2469.56 136.10 2469.47 159.00 C 2468.68 184.74 2474.60 211.74 2490.73 232.35 C 2499.67 242.93 2510.73 252.14 2523.88 256.93 C 2535.35 261.35 2547.68 263.90 2560.00 263.53 C 2584.87 264.41 2610.49 254.97 2627.52 236.52 C 2644.73 218.93 2653.24 194.30 2654.54 170.04 C 2654.21 162.34 2655.23 154.54 2653.76 146.92 C 2651.64 128.52 2644.78 110.40 2632.93 96.04 C 2626.79 87.57 2618.33 81.05 2609.48 75.64 C 2599.32 69.09 2587.47 65.83 2575.70 63.68 C 2568.62 63.60 2561.60 61.49 2554.53 62.83 Z" />
<path fill="#006671" opacity="1.00" d=" M 691.68 6.68 C 732.78 6.71 773.89 6.68 815.00 6.69 C 820.44 6.75 825.94 6.29 831.30 7.47 C 854.22 8.10 877.20 14.20 896.93 26.03 C 906.86 32.13 915.68 39.95 923.18 48.86 C 934.99 63.47 942.31 81.36 945.42 99.82 C 946.45 105.15 946.32 110.61 947.26 115.96 C 947.37 175.32 947.27 234.68 947.32 294.04 C 946.80 302.19 945.14 311.08 938.95 316.95 C 931.08 325.14 918.72 326.01 908.05 325.17 C 903.41 324.28 898.59 323.16 894.69 320.35 C 891.46 317.51 888.17 314.49 886.41 310.48 C 883.89 305.73 883.30 300.29 882.72 295.04 C 882.64 234.04 882.74 173.03 882.67 112.03 C 881.49 100.75 877.40 89.01 868.57 81.43 C 860.09 74.12 848.81 71.54 837.96 70.34 C 810.72 70.21 783.47 70.44 756.23 70.23 C 756.42 143.83 756.26 217.44 756.31 291.04 C 755.51 299.00 755.10 307.52 750.35 314.32 C 746.60 318.84 741.73 322.72 735.90 324.07 C 730.43 325.88 724.62 325.27 718.96 325.31 C 710.81 324.69 702.36 321.31 697.49 314.46 C 693.52 309.57 692.30 303.14 691.70 297.04 C 691.67 200.25 691.72 103.46 691.68 6.68 Z" />
<path fill="#006671" opacity="1.00" d=" M 1012.68 6.68 C 1056.12 6.69 1099.56 6.72 1143.00 6.66 C 1148.39 6.38 1153.62 8.13 1159.03 7.71 C 1179.89 9.55 1200.62 15.34 1218.56 26.36 C 1227.66 31.65 1235.16 39.06 1242.41 46.59 C 1257.06 63.26 1265.38 84.85 1267.47 106.83 C 1269.04 115.46 1268.03 124.27 1268.31 132.99 C 1268.32 187.34 1268.29 241.69 1268.33 296.04 C 1268.01 304.61 1265.17 313.76 1258.03 319.07 C 1249.72 325.87 1238.31 325.94 1228.16 325.03 C 1220.40 323.96 1213.24 319.61 1208.84 313.13 C 1204.85 306.45 1204.44 298.57 1203.69 291.04 C 1203.69 231.35 1203.68 171.67 1203.70 111.98 C 1202.89 101.54 1199.60 90.61 1191.64 83.35 C 1183.09 74.15 1170.08 71.19 1158.02 70.31 C 1131.09 70.25 1104.16 70.42 1077.23 70.23 C 1077.42 144.83 1077.24 219.44 1077.32 294.04 C 1076.86 301.10 1075.61 308.46 1071.33 314.30 C 1068.06 318.17 1064.30 322.01 1059.23 323.36 C 1052.79 325.82 1045.81 325.52 1039.05 325.17 C 1032.54 323.92 1025.62 322.11 1021.05 316.95 C 1014.18 310.30 1012.71 300.12 1012.67 291.00 C 1012.72 196.22 1012.69 101.45 1012.68 6.68 Z" />
<path fill="#006671" opacity="1.00" d=" M 2778.68 6.68 C 2819.78 6.71 2860.89 6.68 2902.00 6.69 C 2907.43 6.75 2912.94 6.29 2918.31 7.47 C 2940.99 8.08 2963.70 14.09 2983.32 25.65 C 2989.88 29.95 2996.62 34.20 3001.91 40.09 C 3010.12 47.82 3017.24 56.87 3021.86 67.22 C 3030.16 82.45 3033.13 99.87 3034.33 116.98 C 3034.28 172.98 3034.32 228.99 3034.31 285.00 C 3034.58 294.08 3034.54 303.69 3029.90 311.82 C 3024.68 321.29 3013.42 325.69 3003.01 325.35 C 2995.86 325.75 2988.44 324.55 2982.27 320.78 C 2978.12 317.47 2974.26 313.50 2972.49 308.40 C 2970.02 300.87 2969.35 292.88 2969.69 285.00 C 2969.70 229.67 2969.67 174.34 2969.70 119.00 C 2970.17 107.61 2967.61 95.62 2960.44 86.52 C 2954.11 78.39 2944.32 73.66 2934.35 71.83 C 2925.40 69.50 2916.12 70.51 2907.00 70.31 C 2885.74 70.25 2864.48 70.42 2843.23 70.23 C 2843.42 138.15 2843.25 206.08 2843.31 274.00 C 2843.11 285.73 2844.45 297.89 2840.22 309.11 C 2836.31 318.73 2826.22 324.86 2816.04 325.31 C 2810.66 325.41 2805.22 325.59 2799.99 324.21 C 2793.75 323.18 2788.59 319.04 2784.65 314.32 C 2780.56 309.17 2779.43 302.39 2778.70 296.04 C 2778.67 199.59 2778.72 103.13 2778.68 6.68 Z" />
</g>
</svg>
